#!OML:ASF F:\twosubjects\two\Thursday\Session 1\Rory.ASF
:FULLY-SPECIFIED
:DEGREES
356
root 21.9411 16.7882 -10.8044 -174.412 -61.9818 181.568
lowerback 22.4058 1.79076 -4.16723
upperback 9.63314 0.276808 -2.23788
thorax -2.00704 -0.380404 -0.0766715
lowerneck -0.061547 17.275 9.19488
upperneck -10.4704 22.2402 -21.8028
head 0.544816 11.4498 -7.19808
rclavicle -9.54166e-015 2.38542e-015
rhumerus -34.5775 -6.5652 -76.3845
rradius 63.6852
rwrist 8.6484
rhand -20.5207 25.8072
rfingers 7.12502
rthumb 5.83712 -4.09235
lclavicle -9.54166e-015 2.38542e-015
lhumerus 10.4803 27.0805 72.8836
lradius 91.413
lwrist -34.4588
lhand -16.3959 45.8179
lfingers 7.12502
lthumb 9.81817 75.569
rfemur -46.5998 -4.36593 8.37544
rtibia 65.8208
rfoot -11.7877 -16.2275
rtoes -5.15591
lfemur -36.14 2.52894 -19.0786
ltibia 58.7991
lfoot -25.9629 5.09001
ltoes 13.3708
357
root 21.8934 16.7675 -10.8779 -174.939 -61.6735 182.296
lowerback 22.0233 1.65323 -3.97842
upperback 9.57276 0.185702 -2.11373
thorax -1.88089 -0.415621 -0.0273278
lowerneck 0.00500685 17.4698 8.88507
upperneck -10.5682 22.4796 -21.8936
head 0.516397 11.5876 -7.17149
rclavicle -6.75868e-014 4.37326e-014
rhumerus -34.3411 -6.36574 -76.3612
rradius 63.4514
rwrist 8.63311
rhand -21.0511 25.9798
rfingers 7.12502
rthumb 5.32502 -3.9333
lclavicle -6.75868e-014 4.37326e-014
lhumerus 9.17781 27.925 70.9404
lradius 91.6614
lwrist -33.4989
lhand -16.4281 45.1303
lfingers 7.12502
lthumb 9.78718 74.8829
rfemur -46.4441 -3.52071 7.95831
rtibia 63.5835
rfoot -11.9751 -16.217
rtoes -7.80093
lfemur -36.1093 2.47435 -18.5264
ltibia 59.2307
lfoot -26.7065 5.66242
ltoes 11.4283
358
root 21.8502 16.748 -10.9551 -174.881 -61.38 182.157
lowerback 21.9852 1.51958 -4.242
upperback 9.48168 -0.0254231 -2.03431
thorax -1.95443 -0.522132 0.25611
lowerneck 0.00287438 17.7095 8.38335
upperneck -10.5366 22.7857 -21.961
head 0.519305 11.7553 -7.09586
rclavicle 3.10104e-014 4.85035e-014
rhumerus -34.0891 -6.00219 -76.2905
rradius 63.1703
rwrist 8.4038
rhand -21.4741 26.1211
rfingers 7.12502
rthumb 4.91663 -3.80181
lclavicle 3.10104e-014 4.85035e-014
lhumerus 8.26962 28.737 69.7458
lradius 91.4456
lwrist -33.4042
lhand -17.0206 44.7677
lfingers 7.12502
lthumb 9.21545 74.5464
rfemur -46.1049 -2.81463 7.1551
rtibia 61.2741
rfoot -11.4104 -15.8743
rtoes -12.5575
lfemur -35.8054 2.36804 -18.3671
ltibia 59.5774
lfoot -27.6339 5.8267
ltoes 10.7509
359
root 21.8083 16.7248 -11.0373 -174.528 -61.0647 181.588
lowerback 22.1021 1.45395 -4.55694
upperback 9.43132 -0.191614 -2.13308
thorax -2.06021 -0.609886 0.367622
lowerneck 0.0158148 17.9329 8.22692
upperneck -10.5823 23.0717 -22.1637
head 0.553851 11.9092 -7.10338
rclavicle 5.08889e-014 2.38542e-014
rhumerus -33.7626 -5.98814 -76.4206
rradius 62.8493
rwrist 8.56135
rhand -21.4601 25.943
rfingers 7.12502
rthumb 4.93007 -3.97968
lclavicle 5.08889e-014 2.38542e-014
lhumerus 7.86868 29.2694 68.9123
lradius 90.9279
lwrist -33.6284
lhand -18.0034 44.4801
lfingers 7.12502
lthumb 8.26709 74.2983
rfemur -45.7181 -2.16343 6.1559
rtibia 58.9755
rfoot -11.2375 -15.4119
rtoes -14.8579
lfemur -35.3979 2.43165 -18.4571
ltibia 59.8578
lfoot -28.2158 5.98529
ltoes 10.3799
360
root 21.7674 16.6915 -11.1183 -174.059 -60.8464 181.03
lowerback 22.0145 1.47548 -4.7977
upperback 9.46736 -0.214684 -2.18801
thorax -1.97504 -0.631468 0.449795
lowerneck -0.218731 18.0494 7.97866
upperneck -10.6094 23.2035 -22.2436
head 0.583469 11.9703 -7.05947
rclavicle -4.6118e-014 -8.74653e-015
rhumerus -33.5837 -6.27462 -76.3845
rradius 62.8276
rwrist 8.50854
rhand -21.0633 25.9772
rfingers 7.12502
rthumb 5.31319 -3.93619
lclavicle -4.6118e-014 -8.74653e-015
lhumerus 7.83483 29.5839 68.4916
lradius 90.5827
lwrist -33.9108
lhand -17.8937 43.7915
lfingers 7.12502
lthumb 8.37293 73.6056
rfemur -45.4949 -1.66014 5.1297
rtibia 56.7275
rfoot -11.3658 -14.6179
rtoes -15.7726
lfemur -35.1983 2.45384 -18.5912
ltibia 60.1258
lfoot -28.4886 6.51727
ltoes 8.619
361
root 21.7281 16.6614 -11.202 -174.062 -60.7428 181.186
lowerback 21.8248 1.53234 -4.4694
upperback 9.4543 -0.0574276 -2.22197
thorax -1.90265 -0.542354 0.191717
lowerneck -0.354186 17.9933 7.84114
upperneck -10.8201 23.0816 -22.233
head 0.509031 11.9123 -7.05397
rclavicle 4.69132e-014 -1.51076e-014
rhumerus -33.6972 -7.24101 -76.3057
rradius 62.8393
rwrist 8.43876
rhand -20.9799 26.5217
rfingers 7.12502
rthumb 5.39374 -3.38966
lclavicle 4.69132e-014 -1.51076e-014
lhumerus 8.05271 29.3577 68.3424
lradius 90.2092
lwrist -34.4398
lhand -17.7216 43.9005
lfingers 7.12502
lthumb 8.53905 73.7078
rfemur -45.3824 -1.22795 4.55033
rtibia 54.5058
rfoot -10.8272 -13.584
rtoes -18.8064
lfemur -35.2183 2.4603 -18.3199
ltibia 60.4037
lfoot -28.706 7.03445
ltoes 6.83144
